<svg width="16" height="18" viewBox="0 0 16 18" fill="none" xmlns="http://www.w3.org/2000/svg">
<g clip-path="url(#clip0_45_31)">
<path d="M8.00029 0C7.36815 0 6.85744 0.502734 6.85744 1.125V1.8C4.25029 2.32031 2.28601 4.59141 2.28601 7.3125V7.97344C2.28601 9.62578 1.66815 11.2219 0.553864 12.4594L0.289579 12.7512C-0.0104213 13.0816 -0.0818499 13.5563 0.100293 13.9605C0.282436 14.3648 0.69315 14.625 1.14315 14.625H14.8574C15.3074 14.625 15.7146 14.3648 15.9003 13.9605C16.086 13.5563 16.011 13.0816 15.711 12.7512L15.4467 12.4594C14.3324 11.2219 13.7146 9.6293 13.7146 7.97344V7.3125C13.7146 4.59141 11.7503 2.32031 9.14315 1.8V1.125C9.14315 0.502734 8.63244 0 8.00029 0ZM9.61815 17.3426C10.0467 16.9207 10.286 16.3477 10.286 15.75H8.00029H5.71458C5.71458 16.3477 5.95386 16.9207 6.38244 17.3426C6.81101 17.7645 7.39315 18 8.00029 18C8.60744 18 9.18958 17.7645 9.61815 17.3426Z" fill="#5B6871"/>
</g>
<defs>
<clipPath id="clip0_45_31">
<rect width="16" height="18" fill="white"/>
</clipPath>
</defs>
</svg>
